<?xml version="1.0" standalone="no"?>
<!DOCTYPE svg PUBLIC "-//W3C//DTD SVG 20010904//EN"
 "http://www.w3.org/TR/2001/REC-SVG-20010904/DTD/svg10.dtd">
<svg version="1.0" xmlns="http://www.w3.org/2000/svg"
 width="300.000000pt" height="148.000000pt" viewBox="0 0 300.000000 148.000000"
 preserveAspectRatio="xMidYMid meet">
<metadata>
Created by potrace 1.10, written by Peter Selinger 2001-2011
</metadata>
<g transform="translate(0.000000,148.000000) scale(0.100000,-0.100000)"
fill="#000000" stroke="none">
<path d="M1658 1249 c-68 -16 -162 -60 -243 -114 -96 -64 -191 -160 -387 -395
-148 -179 -212 -245 -146 -155 53 74 80 133 142 315 32 91 70 184 86 207 16
23 25 45 21 48 -12 7 -112 -108 -283 -325 -81 -102 -174 -212 -209 -245 l-63
-60 48 55 c66 74 121 158 159 238 28 58 32 78 32 149 0 74 -3 85 -30 125 -85
121 -243 101 -396 -52 -88 -89 -133 -178 -133 -270 -1 -114 53 -174 150 -167
91 6 187 96 240 225 43 105 21 192 -47 192 -34 0 -82 -41 -77 -67 5 -26 34
-39 52 -24 24 20 20 49 -7 53 -21 4 -21 5 5 18 23 11 31 11 53 -4 57 -37 19
-182 -77 -291 -125 -142 -283 -99 -265 72 18 170 208 372 350 373 102 0 142
-50 135 -164 -9 -126 -110 -337 -221 -461 -113 -127 14 -37 163 115 52 53 149
169 215 258 66 88 121 159 122 158 2 -1 -13 -31 -32 -67 -18 -35 -58 -128 -89
-205 -68 -176 -100 -240 -139 -281 -22 -24 -26 -33 -15 -33 24 0 191 162 301
295 173 206 234 270 315 328 117 84 222 131 305 135 45 3 67 8 64 16 -5 14
-52 17 -99 5z"/>
<path d="M1511 975 c-10 -16 -53 -91 -96 -165 -44 -74 -89 -148 -102 -163 -31
-39 -32 -109 -2 -131 19 -13 25 -13 50 0 16 8 41 30 56 49 32 40 43 44 43 16
0 -34 12 -53 43 -66 44 -18 89 0 143 57 49 52 59 58 49 29 -8 -26 10 -67 38
-86 50 -32 125 25 184 142 32 63 35 75 25 97 -14 31 -47 34 -100 9 -21 -10
-90 -69 -155 -131 -106 -102 -121 -113 -150 -110 -29 3 -32 6 -35 41 -4 48 38
127 92 173 44 37 63 42 73 18 4 -11 -8 -29 -37 -55 -35 -32 -40 -42 -30 -54
25 -30 81 27 84 86 1 37 -20 55 -56 46 -46 -12 -122 -71 -155 -121 -66 -102
-153 -168 -153 -118 0 16 88 171 224 398 l43 71 -29 -1 c-21 -1 -34 -9 -47
-31z m415 -229 c7 -28 -1 -46 -19 -46 -20 0 -48 -56 -42 -83 5 -19 -2 -31 -34
-60 -81 -73 -126 -33 -77 67 30 60 115 146 145 146 14 0 23 -9 27 -24z"/>
<path d="M1223 765 c-55 -24 -124 -75 -144 -108 -35 -58 -18 -127 38 -148 18
-7 35 -4 66 10 41 18 111 81 91 81 -6 0 -23 -13 -38 -29 -34 -35 -75 -54 -108
-49 -18 2 -24 10 -26 38 -6 74 162 249 192 201 11 -16 -41 -66 -93 -91 -64
-30 -59 -37 11 -15 76 25 108 50 108 85 0 42 -37 51 -97 25z"/>
<path d="M2031 701 c-40 -44 -85 -86 -102 -93 -34 -15 -39 -32 -6 -23 21 6 87
69 154 149 18 20 37 35 43 31 14 -9 -10 -62 -75 -161 -30 -47 -55 -87 -55 -89
0 -3 13 -5 28 -5 25 0 35 10 75 76 58 94 74 143 58 173 -20 37 -46 24 -120
-58z"/>
<path d="M2196 740 c-51 -56 -45 -63 9 -10 36 35 47 42 57 32 14 -14 -14 -76
-84 -184 -21 -32 -38 -61 -38 -63 0 -3 13 -5 30 -5 23 0 33 7 46 33 9 17 31
52 47 77 50 72 46 160 -7 160 -15 0 -37 -15 -60 -40z"/>
<path d="M2367 760 c-15 -12 -36 -35 -49 -53 -18 -27 -13 -24 30 16 28 26 56
47 62 47 27 0 19 -35 -24 -102 -27 -42 -46 -83 -46 -100 0 -26 30 -68 48 -68
21 0 74 44 99 82 l28 42 3 -30 c7 -72 50 -101 118 -78 26 8 60 36 102 80 34
37 60 69 57 73 -4 3 -29 -20 -56 -51 -81 -92 -154 -124 -179 -78 -21 39 42
143 124 201 46 34 66 37 66 9 0 -20 -71 -80 -95 -80 -6 0 -20 -7 -31 -15 -18
-14 -17 -15 11 -9 17 3 53 17 82 29 56 25 77 61 53 90 -36 44 -151 -15 -252
-129 -81 -91 -107 -115 -125 -116 -22 0 -14 33 23 92 44 72 54 121 29 148 -23
25 -46 25 -78 0z"/>
</g>
</svg>
